<mxfile host="app.diagrams.net" modified="2023-12-31T18:29:11.312Z" agent="Mozilla/5.0 (Macintosh; Intel Mac OS X 10_15_7) AppleWebKit/537.36 (KHTML, like Gecko) Chrome/120.0.0.0 Safari/537.36" etag="dMXTqBjeLg27AHJR5_28" version="22.1.16" type="github">
  <diagram name="Page-1" id="owfZn5TdW_rPExysf1wq">
    <mxGraphModel dx="5425" dy="719" grid="0" gridSize="10" guides="1" tooltips="1" connect="1" arrows="1" fold="1" page="1" pageScale="1" pageWidth="850" pageHeight="1100" math="0" shadow="0">
      <root>
        <mxCell id="0" />
        <mxCell id="1" parent="0" />
        <mxCell id="e8qsq0J3X-b_rkl2j7b6-1" value="VPC" style="whiteSpace=wrap;html=1;aspect=fixed;" vertex="1" parent="1">
          <mxGeometry x="364" y="332" width="80" height="80" as="geometry" />
        </mxCell>
        <mxCell id="e8qsq0J3X-b_rkl2j7b6-2" value="Subnet" style="whiteSpace=wrap;html=1;aspect=fixed;" vertex="1" parent="1">
          <mxGeometry x="233" y="478" width="91" height="91" as="geometry" />
        </mxCell>
        <mxCell id="e8qsq0J3X-b_rkl2j7b6-3" value="" style="endArrow=diamondThin;endFill=1;endSize=24;html=1;rounded=0;exitX=1;exitY=0;exitDx=0;exitDy=0;entryX=0;entryY=1;entryDx=0;entryDy=0;" edge="1" parent="1" source="e8qsq0J3X-b_rkl2j7b6-2" target="e8qsq0J3X-b_rkl2j7b6-1">
          <mxGeometry width="160" relative="1" as="geometry">
            <mxPoint x="86" y="507" as="sourcePoint" />
            <mxPoint x="360" y="330" as="targetPoint" />
          </mxGeometry>
        </mxCell>
        <mxCell id="e8qsq0J3X-b_rkl2j7b6-5" value="Region" style="whiteSpace=wrap;html=1;aspect=fixed;" vertex="1" parent="1">
          <mxGeometry x="752" y="18" width="80" height="80" as="geometry" />
        </mxCell>
        <mxCell id="e8qsq0J3X-b_rkl2j7b6-6" value="" style="endArrow=diamondThin;endFill=1;endSize=24;html=1;rounded=0;exitX=1;exitY=0;exitDx=0;exitDy=0;entryX=0;entryY=1;entryDx=0;entryDy=0;" edge="1" parent="1" source="e8qsq0J3X-b_rkl2j7b6-1" target="e8qsq0J3X-b_rkl2j7b6-9">
          <mxGeometry width="160" relative="1" as="geometry">
            <mxPoint x="538" y="338" as="sourcePoint" />
            <mxPoint x="541" y="443" as="targetPoint" />
          </mxGeometry>
        </mxCell>
        <mxCell id="e8qsq0J3X-b_rkl2j7b6-7" value="Availability Zones" style="whiteSpace=wrap;html=1;aspect=fixed;" vertex="1" parent="1">
          <mxGeometry x="630" y="130" width="80" height="80" as="geometry" />
        </mxCell>
        <mxCell id="e8qsq0J3X-b_rkl2j7b6-8" value="" style="endArrow=diamondThin;endFill=1;endSize=24;html=1;rounded=0;exitX=1;exitY=0;exitDx=0;exitDy=0;entryX=0;entryY=1;entryDx=0;entryDy=0;" edge="1" parent="1" source="e8qsq0J3X-b_rkl2j7b6-7" target="e8qsq0J3X-b_rkl2j7b6-5">
          <mxGeometry width="160" relative="1" as="geometry">
            <mxPoint x="454" y="342" as="sourcePoint" />
            <mxPoint x="546" y="287" as="targetPoint" />
          </mxGeometry>
        </mxCell>
        <mxCell id="e8qsq0J3X-b_rkl2j7b6-9" value="Accounts" style="whiteSpace=wrap;html=1;aspect=fixed;" vertex="1" parent="1">
          <mxGeometry x="503" y="231" width="80" height="80" as="geometry" />
        </mxCell>
        <mxCell id="e8qsq0J3X-b_rkl2j7b6-10" value="" style="endArrow=diamondThin;endFill=1;endSize=24;html=1;rounded=0;exitX=1;exitY=0;exitDx=0;exitDy=0;entryX=0;entryY=1;entryDx=0;entryDy=0;" edge="1" parent="1" source="e8qsq0J3X-b_rkl2j7b6-9" target="e8qsq0J3X-b_rkl2j7b6-7">
          <mxGeometry width="160" relative="1" as="geometry">
            <mxPoint x="454" y="342" as="sourcePoint" />
            <mxPoint x="551" y="453" as="targetPoint" />
          </mxGeometry>
        </mxCell>
        <mxCell id="e8qsq0J3X-b_rkl2j7b6-11" value="Internet Gateway" style="whiteSpace=wrap;html=1;aspect=fixed;" vertex="1" parent="1">
          <mxGeometry x="361" y="475" width="91" height="91" as="geometry" />
        </mxCell>
        <mxCell id="e8qsq0J3X-b_rkl2j7b6-12" value="NAT Gateway" style="whiteSpace=wrap;html=1;aspect=fixed;" vertex="1" parent="1">
          <mxGeometry x="492" y="475" width="91" height="91" as="geometry" />
        </mxCell>
        <mxCell id="e8qsq0J3X-b_rkl2j7b6-13" value="" style="endArrow=diamondThin;endFill=1;endSize=24;html=1;rounded=0;exitX=0;exitY=0;exitDx=0;exitDy=0;entryX=1;entryY=1;entryDx=0;entryDy=0;" edge="1" parent="1" source="e8qsq0J3X-b_rkl2j7b6-12" target="e8qsq0J3X-b_rkl2j7b6-1">
          <mxGeometry width="160" relative="1" as="geometry">
            <mxPoint x="334" y="488" as="sourcePoint" />
            <mxPoint x="374" y="422" as="targetPoint" />
          </mxGeometry>
        </mxCell>
        <mxCell id="e8qsq0J3X-b_rkl2j7b6-14" value="" style="endArrow=diamondThin;endFill=1;endSize=24;html=1;rounded=0;exitX=0.5;exitY=0;exitDx=0;exitDy=0;entryX=0.5;entryY=1;entryDx=0;entryDy=0;" edge="1" parent="1" source="e8qsq0J3X-b_rkl2j7b6-11" target="e8qsq0J3X-b_rkl2j7b6-1">
          <mxGeometry width="160" relative="1" as="geometry">
            <mxPoint x="334" y="488" as="sourcePoint" />
            <mxPoint x="374" y="422" as="targetPoint" />
          </mxGeometry>
        </mxCell>
        <mxCell id="e8qsq0J3X-b_rkl2j7b6-15" value="*" style="text;html=1;strokeColor=none;fillColor=none;align=center;verticalAlign=middle;whiteSpace=wrap;rounded=0;" vertex="1" parent="1">
          <mxGeometry x="294" y="455" width="60" height="30" as="geometry" />
        </mxCell>
        <mxCell id="e8qsq0J3X-b_rkl2j7b6-16" value="*&amp;nbsp; HA" style="text;html=1;strokeColor=none;fillColor=none;align=center;verticalAlign=middle;whiteSpace=wrap;rounded=0;" vertex="1" parent="1">
          <mxGeometry x="398" y="448" width="60" height="30" as="geometry" />
        </mxCell>
        <mxCell id="e8qsq0J3X-b_rkl2j7b6-17" value="" style="image;aspect=fixed;perimeter=ellipsePerimeter;html=1;align=center;shadow=0;dashed=0;spacingTop=3;image=img/lib/active_directory/internet_cloud.svg;" vertex="1" parent="1">
          <mxGeometry x="381.5" y="612" width="50" height="31.5" as="geometry" />
        </mxCell>
        <mxCell id="e8qsq0J3X-b_rkl2j7b6-18" value="" style="endArrow=none;dashed=1;html=1;dashPattern=1 3;strokeWidth=2;rounded=0;entryX=0.5;entryY=1;entryDx=0;entryDy=0;exitX=0.5;exitY=0;exitDx=0;exitDy=0;" edge="1" parent="1" source="e8qsq0J3X-b_rkl2j7b6-17" target="e8qsq0J3X-b_rkl2j7b6-11">
          <mxGeometry width="50" height="50" relative="1" as="geometry">
            <mxPoint x="152" y="772" as="sourcePoint" />
            <mxPoint x="202" y="722" as="targetPoint" />
          </mxGeometry>
        </mxCell>
        <mxCell id="e8qsq0J3X-b_rkl2j7b6-19" value="" style="shape=flexArrow;endArrow=classic;startArrow=classic;html=1;rounded=0;exitX=0.5;exitY=0;exitDx=0;exitDy=0;" edge="1" parent="1" source="e8qsq0J3X-b_rkl2j7b6-20">
          <mxGeometry width="100" height="100" relative="1" as="geometry">
            <mxPoint x="436" y="666" as="sourcePoint" />
            <mxPoint x="536" y="566" as="targetPoint" />
          </mxGeometry>
        </mxCell>
        <mxCell id="e8qsq0J3X-b_rkl2j7b6-20" value="Translation SVC From Private IP to Public IP" style="whiteSpace=wrap;html=1;aspect=fixed;" vertex="1" parent="1">
          <mxGeometry x="492" y="674" width="80" height="80" as="geometry" />
        </mxCell>
        <mxCell id="e8qsq0J3X-b_rkl2j7b6-21" value="" style="shape=flexArrow;endArrow=classic;startArrow=classic;html=1;rounded=0;exitX=1;exitY=1;exitDx=0;exitDy=0;entryX=0;entryY=0;entryDx=0;entryDy=0;" edge="1" parent="1" source="e8qsq0J3X-b_rkl2j7b6-17" target="e8qsq0J3X-b_rkl2j7b6-20">
          <mxGeometry width="100" height="100" relative="1" as="geometry">
            <mxPoint x="103" y="791" as="sourcePoint" />
            <mxPoint x="203" y="691" as="targetPoint" />
          </mxGeometry>
        </mxCell>
        <mxCell id="e8qsq0J3X-b_rkl2j7b6-22" value="1" style="ellipse;whiteSpace=wrap;html=1;aspect=fixed;" vertex="1" parent="1">
          <mxGeometry x="546" y="602" width="26" height="26" as="geometry" />
        </mxCell>
        <mxCell id="e8qsq0J3X-b_rkl2j7b6-26" value="2" style="ellipse;whiteSpace=wrap;html=1;aspect=fixed;" vertex="1" parent="1">
          <mxGeometry x="458" y="612" width="26" height="26" as="geometry" />
        </mxCell>
        <mxCell id="e8qsq0J3X-b_rkl2j7b6-28" value="/16&lt;br&gt;Mask&lt;br&gt;FF.FF.00.00" style="whiteSpace=wrap;html=1;aspect=fixed;" vertex="1" parent="1">
          <mxGeometry x="26" y="594" width="72" height="72" as="geometry" />
        </mxCell>
        <mxCell id="e8qsq0J3X-b_rkl2j7b6-29" value="/17&lt;br&gt;Mask&lt;br&gt;FF.FF.80.00" style="whiteSpace=wrap;html=1;aspect=fixed;" vertex="1" parent="1">
          <mxGeometry x="118" y="594" width="73" height="73" as="geometry" />
        </mxCell>
        <mxCell id="e8qsq0J3X-b_rkl2j7b6-30" value="/18&lt;br&gt;Mask&lt;br&gt;FF.FF.C0.00" style="whiteSpace=wrap;html=1;aspect=fixed;" vertex="1" parent="1">
          <mxGeometry x="216" y="594" width="73" height="73" as="geometry" />
        </mxCell>
        <mxCell id="e8qsq0J3X-b_rkl2j7b6-31" value="/19&lt;br&gt;Mask&lt;br&gt;FF.FF.E0.00" style="whiteSpace=wrap;html=1;aspect=fixed;" vertex="1" parent="1">
          <mxGeometry x="26" y="699" width="72" height="72" as="geometry" />
        </mxCell>
        <mxCell id="e8qsq0J3X-b_rkl2j7b6-32" value="/20&lt;br&gt;Mask&lt;br&gt;FF.FF.F0.00" style="whiteSpace=wrap;html=1;aspect=fixed;" vertex="1" parent="1">
          <mxGeometry x="118" y="699" width="73" height="73" as="geometry" />
        </mxCell>
        <mxCell id="e8qsq0J3X-b_rkl2j7b6-33" value="/21&lt;br&gt;Mask&lt;br&gt;FF.FF.F8.00" style="whiteSpace=wrap;html=1;aspect=fixed;" vertex="1" parent="1">
          <mxGeometry x="216" y="699" width="73" height="73" as="geometry" />
        </mxCell>
        <mxCell id="e8qsq0J3X-b_rkl2j7b6-34" value="/22&lt;br&gt;Mask&lt;br&gt;FF.FF.FC.00" style="whiteSpace=wrap;html=1;aspect=fixed;" vertex="1" parent="1">
          <mxGeometry x="26" y="803" width="72" height="72" as="geometry" />
        </mxCell>
        <mxCell id="e8qsq0J3X-b_rkl2j7b6-35" value="/23&lt;br&gt;Mask&lt;br&gt;FF.FF.FE.00" style="whiteSpace=wrap;html=1;aspect=fixed;" vertex="1" parent="1">
          <mxGeometry x="118" y="803" width="73" height="73" as="geometry" />
        </mxCell>
        <mxCell id="e8qsq0J3X-b_rkl2j7b6-36" value="/24&lt;br&gt;Mask&lt;br&gt;FF.FF.FF.00" style="whiteSpace=wrap;html=1;aspect=fixed;" vertex="1" parent="1">
          <mxGeometry x="216" y="803" width="73" height="73" as="geometry" />
        </mxCell>
        <mxCell id="e8qsq0J3X-b_rkl2j7b6-37" value="/25&lt;br&gt;Mask&lt;br&gt;FF.FF.FF.80" style="whiteSpace=wrap;html=1;aspect=fixed;" vertex="1" parent="1">
          <mxGeometry x="28" y="915" width="72" height="72" as="geometry" />
        </mxCell>
        <mxCell id="e8qsq0J3X-b_rkl2j7b6-38" value="/26&lt;br&gt;Mask&lt;br&gt;%3CmxGraphModel%3E%3Croot%3E%3CmxCell%20id%3D%220%22%2F%3E%3CmxCell%20id%3D%221%22%20parent%3D%220%22%2F%3E%3CmxCell%20id%3D%222%22%20value%3D%22%2F22%26lt%3Bbr%26gt%3BMask%26lt%3Bbr%26gt%3BFF.FF.F1%22%20style%3D%22whiteSpace%3Dwrap%3Bhtml%3D1%3Baspect%3Dfixed%3B%22%20vertex%3D%221%22%20parent%3D%221%22%3E%3CmxGeometry%20x%3D%2226%22%20y%3D%22803%22%20width%3D%2272%22%20height%3D%2272%22%20as%3D%22geometry%22%2F%3E%3C%2FmxCell%3E%3CmxCell%20id%3D%223%22%20value%3D%22%2F20%26lt%3Bbr%26gt%3BMask%26lt%3Bbr%26gt%3BFF.FF.FC%22%20style%3D%22whiteSpace%3Dwrap%3Bhtml%3D1%3Baspect%3Dfixed%3B%22%20vertex%3D%221%22%20parent%3D%221%22%3E%3CmxGeometry%20x%3D%22118%22%20y%3D%22803%22%20width%3D%2273%22%20height%3D%2273%22%20as%3D%22geometry%22%2F%3E%3C%2FmxCell%3E%3CmxCell%20id%3D%224%22%20value%3D%22%2F21%26lt%3Bbr%26gt%3BMask%26lt%3Bbr%26gt%3BFF.FF.FD%22%20style%3D%22whiteSpace%3Dwrap%3Bhtml%3D1%3Baspect%3Dfixed%3B%22%20vertex%3D%221%22%20parent%3D%221%22%3E%3CmxGeometry%20x%3D%22216%22%20y%3D%22803%22%20width%3D%2273%22%20height%3D%2273%22%20as%3D%22geometry%22%2F%3E%3C%2FmxCell%3E%3C%2Froot%3E%3C%2FmxGraphModel%3EFF.FF.FF.0" style="whiteSpace=wrap;html=1;aspect=fixed;" vertex="1" parent="1">
          <mxGeometry x="120" y="915" width="73" height="73" as="geometry" />
        </mxCell>
        <mxCell id="e8qsq0J3X-b_rkl2j7b6-40" value="8,,4,2,0" style="whiteSpace=wrap;html=1;aspect=fixed;" vertex="1" parent="1">
          <mxGeometry x="588" y="876" width="80" height="80" as="geometry" />
        </mxCell>
      </root>
    </mxGraphModel>
  </diagram>
</mxfile>
